<mxfile host="app.diagrams.net" agent="Mozilla/5.0 (Windows NT 10.0; Win64; x64) AppleWebKit/537.36 (KHTML, like Gecko) Chrome/131.0.0.0 Safari/537.36" version="24.8.6">
  <diagram id="R2lEEEUBdFMjLlhIrx00" name="Page-1">
    <mxGraphModel dx="3813" dy="1569" grid="1" gridSize="10" guides="1" tooltips="1" connect="1" arrows="1" fold="1" page="1" pageScale="1" pageWidth="850" pageHeight="1100" math="0" shadow="0" extFonts="Permanent Marker^https://fonts.googleapis.com/css?family=Permanent+Marker">
      <root>
        <mxCell id="0" />
        <mxCell id="1" parent="0" />
        <mxCell id="z2-AAqR7datLfCW1ZJ1K-5" value="" style="rounded=0;whiteSpace=wrap;html=1;fillColor=none;" vertex="1" parent="1">
          <mxGeometry x="-390" y="10" width="1610" height="980" as="geometry" />
        </mxCell>
        <mxCell id="M1cJuR4M6LPj80I8JZXZ-1" value="supplier" style="swimlane;fontStyle=0;childLayout=stackLayout;horizontal=1;startSize=20;horizontalStack=0;resizeParent=1;resizeParentMax=0;resizeLast=0;collapsible=1;marginBottom=0;whiteSpace=wrap;html=1;spacing=2;" parent="1" vertex="1">
          <mxGeometry x="-303" y="523" width="140" height="90" as="geometry" />
        </mxCell>
        <mxCell id="M1cJuR4M6LPj80I8JZXZ-2" value="&lt;u&gt;supplier_id&lt;/u&gt;&lt;div&gt;name&lt;/div&gt;&lt;div&gt;address&lt;/div&gt;&lt;div&gt;&lt;br&gt;&lt;/div&gt;" style="text;strokeColor=none;fillColor=none;align=left;verticalAlign=middle;spacingLeft=4;spacingRight=4;overflow=hidden;points=[[0,0.5],[1,0.5]];portConstraint=eastwest;rotatable=0;whiteSpace=wrap;html=1;spacing=2;" parent="M1cJuR4M6LPj80I8JZXZ-1" vertex="1">
          <mxGeometry y="20" width="140" height="70" as="geometry" />
        </mxCell>
        <mxCell id="M1cJuR4M6LPj80I8JZXZ-3" value="warehouse_inventory" style="swimlane;fontStyle=0;childLayout=stackLayout;horizontal=1;startSize=20;horizontalStack=0;resizeParent=1;resizeParentMax=0;resizeLast=0;collapsible=1;marginBottom=0;whiteSpace=wrap;html=1;spacing=2;" parent="1" vertex="1">
          <mxGeometry x="490" y="160" width="140" height="100" as="geometry" />
        </mxCell>
        <mxCell id="M1cJuR4M6LPj80I8JZXZ-4" value="&lt;u&gt;warehouse_id&lt;/u&gt;&lt;div&gt;&lt;u&gt;product_id&lt;/u&gt;&lt;/div&gt;&lt;div&gt;quantity&lt;/div&gt;&lt;div&gt;last_updated&lt;/div&gt;&lt;div&gt;&lt;br&gt;&lt;/div&gt;" style="text;strokeColor=none;fillColor=none;align=left;verticalAlign=middle;spacingLeft=4;spacingRight=4;overflow=hidden;points=[[0,0.5],[1,0.5]];portConstraint=eastwest;rotatable=0;whiteSpace=wrap;html=1;spacing=2;" parent="M1cJuR4M6LPj80I8JZXZ-3" vertex="1">
          <mxGeometry y="20" width="140" height="80" as="geometry" />
        </mxCell>
        <mxCell id="M1cJuR4M6LPj80I8JZXZ-57" style="edgeStyle=orthogonalEdgeStyle;rounded=0;orthogonalLoop=1;jettySize=auto;html=1;entryX=0.5;entryY=0;entryDx=0;entryDy=0;shape=link;" parent="1" source="M1cJuR4M6LPj80I8JZXZ-5" target="M1cJuR4M6LPj80I8JZXZ-22" edge="1">
          <mxGeometry relative="1" as="geometry" />
        </mxCell>
        <mxCell id="M1cJuR4M6LPj80I8JZXZ-5" value="products" style="swimlane;fontStyle=0;childLayout=stackLayout;horizontal=1;startSize=20;horizontalStack=0;resizeParent=1;resizeParentMax=0;resizeLast=0;collapsible=1;marginBottom=0;whiteSpace=wrap;html=1;spacing=2;" parent="1" vertex="1">
          <mxGeometry x="50" y="481" width="140" height="160" as="geometry" />
        </mxCell>
        <mxCell id="M1cJuR4M6LPj80I8JZXZ-6" value="&lt;div&gt;&lt;span&gt;&lt;/span&gt;&lt;span&gt;&lt;/span&gt;&lt;span style=&quot;white-space: pre-wrap;&quot;&gt;&lt;u&gt;product_id&lt;br&gt;&lt;/u&gt;product_name&lt;br&gt;brand&lt;br&gt;category&lt;br&gt;supplier_id&lt;br&gt;cost_price&lt;br&gt;retail_price&lt;br&gt;shelf_life,&lt;br&gt;nutrition_id&lt;br&gt;&lt;br&gt;&lt;/span&gt;&lt;/div&gt;" style="text;strokeColor=none;fillColor=none;align=left;verticalAlign=middle;spacingLeft=4;spacingRight=4;overflow=hidden;points=[[0,0.5],[1,0.5]];portConstraint=eastwest;rotatable=0;whiteSpace=wrap;html=1;spacing=2;" parent="M1cJuR4M6LPj80I8JZXZ-5" vertex="1">
          <mxGeometry y="20" width="140" height="140" as="geometry" />
        </mxCell>
        <mxCell id="M1cJuR4M6LPj80I8JZXZ-7" value="location_inventory" style="swimlane;fontStyle=0;childLayout=stackLayout;horizontal=1;startSize=20;horizontalStack=0;resizeParent=1;resizeParentMax=0;resizeLast=0;collapsible=1;marginBottom=0;whiteSpace=wrap;html=1;spacing=2;" parent="1" vertex="1">
          <mxGeometry x="500" y="838" width="140" height="90" as="geometry" />
        </mxCell>
        <mxCell id="M1cJuR4M6LPj80I8JZXZ-8" value="&lt;div&gt;&lt;span&gt;&lt;/span&gt;&lt;span&gt;&lt;/span&gt;&lt;span&gt;&lt;/span&gt;&lt;span style=&quot;white-space: pre-wrap;&quot;&gt;&lt;u&gt;location_id&lt;br&gt;product_id&lt;br&gt;&lt;/u&gt;quantity&lt;br&gt;last_updated&lt;br&gt;&lt;/span&gt;&lt;/div&gt;" style="text;strokeColor=none;fillColor=none;align=left;verticalAlign=middle;spacingLeft=4;spacingRight=4;overflow=hidden;points=[[0,0.5],[1,0.5]];portConstraint=eastwest;rotatable=0;whiteSpace=wrap;html=1;spacing=2;" parent="M1cJuR4M6LPj80I8JZXZ-7" vertex="1">
          <mxGeometry y="20" width="140" height="70" as="geometry" />
        </mxCell>
        <mxCell id="M1cJuR4M6LPj80I8JZXZ-9" value="warehouse" style="swimlane;fontStyle=0;childLayout=stackLayout;horizontal=1;startSize=20;horizontalStack=0;resizeParent=1;resizeParentMax=0;resizeLast=0;collapsible=1;marginBottom=0;whiteSpace=wrap;html=1;spacing=2;" parent="1" vertex="1">
          <mxGeometry x="999" y="179" width="140" height="100" as="geometry" />
        </mxCell>
        <mxCell id="M1cJuR4M6LPj80I8JZXZ-10" value="&lt;u&gt;warehouse_id&lt;/u&gt;&lt;div&gt;name&lt;/div&gt;&lt;div&gt;address&lt;/div&gt;&lt;div&gt;&lt;br&gt;&lt;/div&gt;" style="text;strokeColor=none;fillColor=none;align=left;verticalAlign=middle;spacingLeft=4;spacingRight=4;overflow=hidden;points=[[0,0.5],[1,0.5]];portConstraint=eastwest;rotatable=0;whiteSpace=wrap;html=1;spacing=2;" parent="M1cJuR4M6LPj80I8JZXZ-9" vertex="1">
          <mxGeometry y="20" width="140" height="80" as="geometry" />
        </mxCell>
        <mxCell id="M1cJuR4M6LPj80I8JZXZ-11" value="location" style="swimlane;fontStyle=0;childLayout=stackLayout;horizontal=1;startSize=20;horizontalStack=0;resizeParent=1;resizeParentMax=0;resizeLast=0;collapsible=1;marginBottom=0;whiteSpace=wrap;html=1;spacing=2;" parent="1" vertex="1">
          <mxGeometry x="1060" y="835" width="140" height="100" as="geometry" />
        </mxCell>
        <mxCell id="M1cJuR4M6LPj80I8JZXZ-12" value="&lt;u&gt;location_id&lt;/u&gt;&lt;div&gt;name&lt;/div&gt;&lt;div&gt;type&lt;/div&gt;&lt;div&gt;address&lt;/div&gt;&lt;div&gt;ip_address&lt;/div&gt;" style="text;strokeColor=none;fillColor=none;align=left;verticalAlign=middle;spacingLeft=4;spacingRight=4;overflow=hidden;points=[[0,0.5],[1,0.5]];portConstraint=eastwest;rotatable=0;whiteSpace=wrap;html=1;spacing=2;" parent="M1cJuR4M6LPj80I8JZXZ-11" vertex="1">
          <mxGeometry y="20" width="140" height="80" as="geometry" />
        </mxCell>
        <mxCell id="M1cJuR4M6LPj80I8JZXZ-13" value="user" style="swimlane;fontStyle=0;childLayout=stackLayout;horizontal=1;startSize=20;horizontalStack=0;resizeParent=1;resizeParentMax=0;resizeLast=0;collapsible=1;marginBottom=0;whiteSpace=wrap;html=1;spacing=2;" parent="1" vertex="1">
          <mxGeometry x="913" y="531" width="140" height="110" as="geometry" />
        </mxCell>
        <mxCell id="M1cJuR4M6LPj80I8JZXZ-14" value="&lt;u&gt;user_id&lt;/u&gt;&lt;div&gt;name&lt;/div&gt;&lt;div&gt;email&lt;/div&gt;&lt;div&gt;type&lt;/div&gt;&lt;div&gt;address&lt;/div&gt;&lt;div&gt;phone_number&lt;/div&gt;" style="text;strokeColor=none;fillColor=none;align=left;verticalAlign=middle;spacingLeft=4;spacingRight=4;overflow=hidden;points=[[0,0.5],[1,0.5]];portConstraint=eastwest;rotatable=0;whiteSpace=wrap;html=1;spacing=2;" parent="M1cJuR4M6LPj80I8JZXZ-13" vertex="1">
          <mxGeometry y="20" width="140" height="90" as="geometry" />
        </mxCell>
        <mxCell id="M1cJuR4M6LPj80I8JZXZ-15" value="nutrition" style="swimlane;fontStyle=0;childLayout=stackLayout;horizontal=1;startSize=20;horizontalStack=0;resizeParent=1;resizeParentMax=0;resizeLast=0;collapsible=1;marginBottom=0;whiteSpace=wrap;html=1;spacing=2;" parent="1" vertex="1">
          <mxGeometry x="50" y="830" width="140" height="140" as="geometry" />
        </mxCell>
        <mxCell id="M1cJuR4M6LPj80I8JZXZ-16" value="&lt;u&gt;nutrition_id&lt;/u&gt;&lt;div&gt;shelf_life&lt;/div&gt;&lt;div&gt;serving&lt;/div&gt;&lt;div&gt;calories&lt;/div&gt;&lt;div&gt;protein&lt;/div&gt;&lt;div&gt;fat&lt;/div&gt;&lt;div&gt;sugar&lt;/div&gt;&lt;div&gt;carbs&lt;/div&gt;&lt;div&gt;&lt;br&gt;&lt;/div&gt;&lt;div&gt;&lt;br&gt;&lt;/div&gt;" style="text;strokeColor=none;fillColor=none;align=left;verticalAlign=middle;spacingLeft=4;spacingRight=4;overflow=hidden;points=[[0,0.5],[1,0.5]];portConstraint=eastwest;rotatable=0;whiteSpace=wrap;html=1;spacing=2;" parent="M1cJuR4M6LPj80I8JZXZ-15" vertex="1">
          <mxGeometry y="20" width="140" height="120" as="geometry" />
        </mxCell>
        <mxCell id="M1cJuR4M6LPj80I8JZXZ-67" style="edgeStyle=orthogonalEdgeStyle;rounded=0;orthogonalLoop=1;jettySize=auto;html=1;entryX=0.5;entryY=0;entryDx=0;entryDy=0;exitX=0.5;exitY=1;exitDx=0;exitDy=0;exitPerimeter=0;" parent="1" source="M1cJuR4M6LPj80I8JZXZ-20" target="M1cJuR4M6LPj80I8JZXZ-1" edge="1">
          <mxGeometry relative="1" as="geometry">
            <mxPoint x="-228" y="250" as="sourcePoint" />
            <mxPoint x="-233" y="523" as="targetPoint" />
          </mxGeometry>
        </mxCell>
        <mxCell id="M1cJuR4M6LPj80I8JZXZ-20" value="supplier_purchase" style="rhombus;whiteSpace=wrap;html=1;" parent="1" vertex="1">
          <mxGeometry x="-293" y="170" width="120" height="80" as="geometry" />
        </mxCell>
        <mxCell id="M1cJuR4M6LPj80I8JZXZ-58" style="edgeStyle=orthogonalEdgeStyle;rounded=0;orthogonalLoop=1;jettySize=auto;html=1;entryX=0.5;entryY=0;entryDx=0;entryDy=0;" parent="1" source="M1cJuR4M6LPj80I8JZXZ-22" target="M1cJuR4M6LPj80I8JZXZ-15" edge="1">
          <mxGeometry relative="1" as="geometry" />
        </mxCell>
        <mxCell id="M1cJuR4M6LPj80I8JZXZ-22" value="nutrition_info" style="rhombus;whiteSpace=wrap;html=1;" parent="1" vertex="1">
          <mxGeometry x="60" y="700" width="120" height="80" as="geometry" />
        </mxCell>
        <mxCell id="M1cJuR4M6LPj80I8JZXZ-24" value="warehouse_info" style="rhombus;whiteSpace=wrap;html=1;" parent="1" vertex="1">
          <mxGeometry x="680" y="180" width="120" height="80" as="geometry" />
        </mxCell>
        <mxCell id="mIFWNlDHHsfMtyNEvNPU-16" style="edgeStyle=orthogonalEdgeStyle;rounded=0;orthogonalLoop=1;jettySize=auto;html=1;" parent="1" source="M1cJuR4M6LPj80I8JZXZ-25" target="M1cJuR4M6LPj80I8JZXZ-12" edge="1">
          <mxGeometry relative="1" as="geometry" />
        </mxCell>
        <mxCell id="M1cJuR4M6LPj80I8JZXZ-25" value="location_info" style="rhombus;whiteSpace=wrap;html=1;" parent="1" vertex="1">
          <mxGeometry x="680" y="854" width="120" height="80" as="geometry" />
        </mxCell>
        <mxCell id="M1cJuR4M6LPj80I8JZXZ-33" value="sales_product" style="rhombus;whiteSpace=wrap;html=1;" parent="1" vertex="1">
          <mxGeometry x="330" y="648" width="120" height="80" as="geometry" />
        </mxCell>
        <mxCell id="M1cJuR4M6LPj80I8JZXZ-36" style="edgeStyle=orthogonalEdgeStyle;rounded=0;orthogonalLoop=1;jettySize=auto;html=1;exitX=1;exitY=0.5;exitDx=0;exitDy=0;entryX=0.02;entryY=0.274;entryDx=0;entryDy=0;entryPerimeter=0;" parent="1" source="M1cJuR4M6LPj80I8JZXZ-24" target="M1cJuR4M6LPj80I8JZXZ-10" edge="1">
          <mxGeometry relative="1" as="geometry" />
        </mxCell>
        <mxCell id="M1cJuR4M6LPj80I8JZXZ-60" style="edgeStyle=orthogonalEdgeStyle;rounded=0;orthogonalLoop=1;jettySize=auto;html=1;entryX=0.5;entryY=0;entryDx=0;entryDy=0;endArrow=none;endFill=0;shape=link;" parent="1" source="M1cJuR4M6LPj80I8JZXZ-37" target="M1cJuR4M6LPj80I8JZXZ-59" edge="1">
          <mxGeometry relative="1" as="geometry" />
        </mxCell>
        <mxCell id="mIFWNlDHHsfMtyNEvNPU-23" style="edgeStyle=orthogonalEdgeStyle;rounded=0;orthogonalLoop=1;jettySize=auto;html=1;entryX=0;entryY=0.5;entryDx=0;entryDy=0;shape=link;" parent="1" source="M1cJuR4M6LPj80I8JZXZ-37" target="M1cJuR4M6LPj80I8JZXZ-48" edge="1">
          <mxGeometry relative="1" as="geometry" />
        </mxCell>
        <mxCell id="M1cJuR4M6LPj80I8JZXZ-37" value="purchase" style="swimlane;fontStyle=0;childLayout=stackLayout;horizontal=1;startSize=20;horizontalStack=0;resizeParent=1;resizeParentMax=0;resizeLast=0;collapsible=1;marginBottom=0;whiteSpace=wrap;html=1;spacing=2;" parent="1" vertex="1">
          <mxGeometry x="-114" y="156" width="140" height="140" as="geometry" />
        </mxCell>
        <mxCell id="M1cJuR4M6LPj80I8JZXZ-38" value="&lt;u&gt;purchase_id&lt;/u&gt;&lt;div&gt;supplier_id&lt;/div&gt;&lt;div&gt;warehouse_id&lt;/div&gt;&lt;div&gt;product_id&lt;/div&gt;&lt;div&gt;quantity&lt;/div&gt;&lt;div&gt;purchase_date&lt;/div&gt;&lt;div&gt;&lt;br&gt;&lt;/div&gt;" style="text;strokeColor=none;fillColor=none;align=left;verticalAlign=middle;spacingLeft=4;spacingRight=4;overflow=hidden;points=[[0,0.5],[1,0.5]];portConstraint=eastwest;rotatable=0;whiteSpace=wrap;html=1;spacing=2;" parent="M1cJuR4M6LPj80I8JZXZ-37" vertex="1">
          <mxGeometry y="20" width="140" height="120" as="geometry" />
        </mxCell>
        <mxCell id="M1cJuR4M6LPj80I8JZXZ-41" value="sales" style="swimlane;fontStyle=0;childLayout=stackLayout;horizontal=1;startSize=20;horizontalStack=0;resizeParent=1;resizeParentMax=0;resizeLast=0;collapsible=1;marginBottom=0;whiteSpace=wrap;html=1;spacing=2;" parent="1" vertex="1">
          <mxGeometry x="510" y="608" width="140" height="140" as="geometry" />
        </mxCell>
        <mxCell id="M1cJuR4M6LPj80I8JZXZ-42" value="&lt;u&gt;sales_id&lt;/u&gt;&lt;div&gt;location_id&lt;/div&gt;&lt;div&gt;user_id&lt;/div&gt;&lt;div&gt;product_id&lt;/div&gt;&lt;div&gt;quantity&lt;/div&gt;&lt;div&gt;sales_date&lt;/div&gt;&lt;div&gt;&lt;br&gt;&lt;/div&gt;" style="text;strokeColor=none;fillColor=none;align=left;verticalAlign=middle;spacingLeft=4;spacingRight=4;overflow=hidden;points=[[0,0.5],[1,0.5]];portConstraint=eastwest;rotatable=0;whiteSpace=wrap;html=1;spacing=2;" parent="M1cJuR4M6LPj80I8JZXZ-41" vertex="1">
          <mxGeometry y="20" width="140" height="120" as="geometry" />
        </mxCell>
        <mxCell id="M1cJuR4M6LPj80I8JZXZ-47" value="" style="endArrow=classic;html=1;rounded=0;entryX=1;entryY=0.5;entryDx=0;entryDy=0;exitX=-0.007;exitY=0.28;exitDx=0;exitDy=0;exitPerimeter=0;shape=link;" parent="1" source="M1cJuR4M6LPj80I8JZXZ-38" target="M1cJuR4M6LPj80I8JZXZ-20" edge="1">
          <mxGeometry width="50" height="50" relative="1" as="geometry">
            <mxPoint x="-30" y="210" as="sourcePoint" />
            <mxPoint x="80" y="380" as="targetPoint" />
          </mxGeometry>
        </mxCell>
        <mxCell id="M1cJuR4M6LPj80I8JZXZ-52" style="edgeStyle=orthogonalEdgeStyle;rounded=0;orthogonalLoop=1;jettySize=auto;html=1;entryX=0.5;entryY=0;entryDx=0;entryDy=0;" parent="1" source="M1cJuR4M6LPj80I8JZXZ-48" target="M1cJuR4M6LPj80I8JZXZ-9" edge="1">
          <mxGeometry relative="1" as="geometry" />
        </mxCell>
        <mxCell id="M1cJuR4M6LPj80I8JZXZ-48" value="&lt;font style=&quot;font-size: 10px;&quot;&gt;purchase_warehouse&lt;/font&gt;" style="rhombus;whiteSpace=wrap;html=1;" parent="1" vertex="1">
          <mxGeometry x="290" y="26" width="120" height="80" as="geometry" />
        </mxCell>
        <mxCell id="M1cJuR4M6LPj80I8JZXZ-50" style="edgeStyle=orthogonalEdgeStyle;rounded=0;orthogonalLoop=1;jettySize=auto;html=1;entryX=0;entryY=0.5;entryDx=0;entryDy=0;shape=link;" parent="1" source="M1cJuR4M6LPj80I8JZXZ-4" target="M1cJuR4M6LPj80I8JZXZ-24" edge="1">
          <mxGeometry relative="1" as="geometry" />
        </mxCell>
        <mxCell id="M1cJuR4M6LPj80I8JZXZ-59" value="&lt;font style=&quot;font-size: 11px;&quot;&gt;products_purchased&lt;/font&gt;" style="rhombus;whiteSpace=wrap;html=1;" parent="1" vertex="1">
          <mxGeometry x="-103" y="346" width="120" height="80" as="geometry" />
        </mxCell>
        <mxCell id="M1cJuR4M6LPj80I8JZXZ-63" value="products_supplier" style="rhombus;whiteSpace=wrap;html=1;" parent="1" vertex="1">
          <mxGeometry x="-108" y="530" width="120" height="80" as="geometry" />
        </mxCell>
        <mxCell id="M1cJuR4M6LPj80I8JZXZ-64" style="edgeStyle=orthogonalEdgeStyle;rounded=0;orthogonalLoop=1;jettySize=auto;html=1;entryX=1;entryY=0.5;entryDx=0;entryDy=0;endArrow=none;endFill=0;shape=link;" parent="1" source="M1cJuR4M6LPj80I8JZXZ-6" target="M1cJuR4M6LPj80I8JZXZ-63" edge="1">
          <mxGeometry relative="1" as="geometry" />
        </mxCell>
        <mxCell id="M1cJuR4M6LPj80I8JZXZ-65" style="edgeStyle=orthogonalEdgeStyle;rounded=0;orthogonalLoop=1;jettySize=auto;html=1;entryX=1.033;entryY=0.381;entryDx=0;entryDy=0;entryPerimeter=0;" parent="1" source="M1cJuR4M6LPj80I8JZXZ-63" target="M1cJuR4M6LPj80I8JZXZ-2" edge="1">
          <mxGeometry relative="1" as="geometry" />
        </mxCell>
        <mxCell id="M1cJuR4M6LPj80I8JZXZ-68" style="edgeStyle=orthogonalEdgeStyle;rounded=0;orthogonalLoop=1;jettySize=auto;html=1;entryX=0.538;entryY=0.009;entryDx=0;entryDy=0;entryPerimeter=0;endArrow=none;endFill=0;" parent="1" source="M1cJuR4M6LPj80I8JZXZ-59" target="M1cJuR4M6LPj80I8JZXZ-5" edge="1">
          <mxGeometry relative="1" as="geometry" />
        </mxCell>
        <mxCell id="M1cJuR4M6LPj80I8JZXZ-73" style="edgeStyle=orthogonalEdgeStyle;rounded=0;orthogonalLoop=1;jettySize=auto;html=1;entryX=1;entryY=0;entryDx=0;entryDy=0;endArrow=none;endFill=0;" parent="1" source="M1cJuR4M6LPj80I8JZXZ-70" target="M1cJuR4M6LPj80I8JZXZ-5" edge="1">
          <mxGeometry relative="1" as="geometry" />
        </mxCell>
        <mxCell id="M1cJuR4M6LPj80I8JZXZ-70" value="&lt;font style=&quot;font-size: 11px;&quot;&gt;warehouse_products&lt;/font&gt;" style="rhombus;whiteSpace=wrap;html=1;" parent="1" vertex="1">
          <mxGeometry x="258" y="180" width="120" height="80" as="geometry" />
        </mxCell>
        <mxCell id="M1cJuR4M6LPj80I8JZXZ-72" style="edgeStyle=orthogonalEdgeStyle;rounded=0;orthogonalLoop=1;jettySize=auto;html=1;exitX=0.5;exitY=1;exitDx=0;exitDy=0;" parent="1" source="M1cJuR4M6LPj80I8JZXZ-70" target="M1cJuR4M6LPj80I8JZXZ-70" edge="1">
          <mxGeometry relative="1" as="geometry" />
        </mxCell>
        <mxCell id="M1cJuR4M6LPj80I8JZXZ-74" value="location_products" style="rhombus;whiteSpace=wrap;html=1;" parent="1" vertex="1">
          <mxGeometry x="238" y="803" width="120" height="80" as="geometry" />
        </mxCell>
        <mxCell id="M1cJuR4M6LPj80I8JZXZ-79" style="edgeStyle=orthogonalEdgeStyle;rounded=0;orthogonalLoop=1;jettySize=auto;html=1;entryX=1;entryY=0.5;entryDx=0;entryDy=0;endArrow=none;endFill=0;" parent="1" source="M1cJuR4M6LPj80I8JZXZ-8" target="M1cJuR4M6LPj80I8JZXZ-74" edge="1">
          <mxGeometry relative="1" as="geometry" />
        </mxCell>
        <mxCell id="M1cJuR4M6LPj80I8JZXZ-80" style="edgeStyle=orthogonalEdgeStyle;rounded=0;orthogonalLoop=1;jettySize=auto;html=1;entryX=0;entryY=0.5;entryDx=0;entryDy=0;shape=link;" parent="1" source="M1cJuR4M6LPj80I8JZXZ-8" target="M1cJuR4M6LPj80I8JZXZ-25" edge="1">
          <mxGeometry relative="1" as="geometry" />
        </mxCell>
        <mxCell id="M1cJuR4M6LPj80I8JZXZ-81" value="movement" style="swimlane;fontStyle=0;childLayout=stackLayout;horizontal=1;startSize=20;horizontalStack=0;resizeParent=1;resizeParentMax=0;resizeLast=0;collapsible=1;marginBottom=0;whiteSpace=wrap;html=1;spacing=2;" parent="1" vertex="1">
          <mxGeometry x="490" y="289" width="140" height="140" as="geometry" />
        </mxCell>
        <mxCell id="M1cJuR4M6LPj80I8JZXZ-82" value="&lt;u&gt;movement_id&lt;/u&gt;&lt;div&gt;warehouse_id&lt;/div&gt;&lt;div&gt;location_id&lt;/div&gt;&lt;div&gt;product_id&lt;/div&gt;&lt;div&gt;quantity&lt;/div&gt;&lt;div&gt;movement_date&lt;/div&gt;&lt;div&gt;&lt;br&gt;&lt;/div&gt;" style="text;strokeColor=none;fillColor=none;align=left;verticalAlign=middle;spacingLeft=4;spacingRight=4;overflow=hidden;points=[[0,0.5],[1,0.5]];portConstraint=eastwest;rotatable=0;whiteSpace=wrap;html=1;spacing=2;" parent="M1cJuR4M6LPj80I8JZXZ-81" vertex="1">
          <mxGeometry y="20" width="140" height="120" as="geometry" />
        </mxCell>
        <mxCell id="M1cJuR4M6LPj80I8JZXZ-83" value="&lt;font style=&quot;font-size: 10px;&quot;&gt;movement_warehouse&lt;/font&gt;" style="rhombus;whiteSpace=wrap;html=1;" parent="1" vertex="1">
          <mxGeometry x="830" y="258" width="120" height="80" as="geometry" />
        </mxCell>
        <mxCell id="mIFWNlDHHsfMtyNEvNPU-5" style="edgeStyle=orthogonalEdgeStyle;rounded=0;orthogonalLoop=1;jettySize=auto;html=1;entryX=0;entryY=0;entryDx=0;entryDy=0;" parent="1" source="mIFWNlDHHsfMtyNEvNPU-2" target="M1cJuR4M6LPj80I8JZXZ-11" edge="1">
          <mxGeometry relative="1" as="geometry" />
        </mxCell>
        <mxCell id="mIFWNlDHHsfMtyNEvNPU-2" value="&lt;font style=&quot;font-size: 10px;&quot;&gt;movement_warehouse&lt;/font&gt;" style="rhombus;whiteSpace=wrap;html=1;" parent="1" vertex="1">
          <mxGeometry x="830" y="366" width="120" height="80" as="geometry" />
        </mxCell>
        <mxCell id="mIFWNlDHHsfMtyNEvNPU-9" style="edgeStyle=orthogonalEdgeStyle;rounded=0;orthogonalLoop=1;jettySize=auto;html=1;entryX=0;entryY=0.5;entryDx=0;entryDy=0;shape=link;" parent="1" source="M1cJuR4M6LPj80I8JZXZ-82" target="M1cJuR4M6LPj80I8JZXZ-83" edge="1">
          <mxGeometry relative="1" as="geometry" />
        </mxCell>
        <mxCell id="mIFWNlDHHsfMtyNEvNPU-10" style="edgeStyle=orthogonalEdgeStyle;rounded=0;orthogonalLoop=1;jettySize=auto;html=1;entryX=0;entryY=0.5;entryDx=0;entryDy=0;shape=link;" parent="1" source="M1cJuR4M6LPj80I8JZXZ-82" target="mIFWNlDHHsfMtyNEvNPU-2" edge="1">
          <mxGeometry relative="1" as="geometry" />
        </mxCell>
        <mxCell id="mIFWNlDHHsfMtyNEvNPU-14" style="edgeStyle=orthogonalEdgeStyle;rounded=0;orthogonalLoop=1;jettySize=auto;html=1;exitX=0;exitY=0.5;exitDx=0;exitDy=0;entryX=1;entryY=0.5;entryDx=0;entryDy=0;endArrow=none;endFill=0;" parent="1" source="mIFWNlDHHsfMtyNEvNPU-12" target="M1cJuR4M6LPj80I8JZXZ-6" edge="1">
          <mxGeometry relative="1" as="geometry" />
        </mxCell>
        <mxCell id="mIFWNlDHHsfMtyNEvNPU-12" value="&lt;font style=&quot;font-size: 11px;&quot;&gt;movement_products&lt;/font&gt;" style="rhombus;whiteSpace=wrap;html=1;" parent="1" vertex="1">
          <mxGeometry x="259" y="329" width="120" height="80" as="geometry" />
        </mxCell>
        <mxCell id="mIFWNlDHHsfMtyNEvNPU-18" style="edgeStyle=orthogonalEdgeStyle;rounded=0;orthogonalLoop=1;jettySize=auto;html=1;entryX=1;entryY=0.5;entryDx=0;entryDy=0;shape=link;" parent="1" source="M1cJuR4M6LPj80I8JZXZ-82" target="mIFWNlDHHsfMtyNEvNPU-12" edge="1">
          <mxGeometry relative="1" as="geometry" />
        </mxCell>
        <mxCell id="mIFWNlDHHsfMtyNEvNPU-19" style="edgeStyle=orthogonalEdgeStyle;rounded=0;orthogonalLoop=1;jettySize=auto;html=1;entryX=0.429;entryY=1.002;entryDx=0;entryDy=0;entryPerimeter=0;" parent="1" source="M1cJuR4M6LPj80I8JZXZ-83" target="M1cJuR4M6LPj80I8JZXZ-10" edge="1">
          <mxGeometry relative="1" as="geometry" />
        </mxCell>
        <mxCell id="mIFWNlDHHsfMtyNEvNPU-20" style="edgeStyle=orthogonalEdgeStyle;rounded=0;orthogonalLoop=1;jettySize=auto;html=1;entryX=1;entryY=0.5;entryDx=0;entryDy=0;endArrow=none;endFill=0;shape=link;" parent="1" source="M1cJuR4M6LPj80I8JZXZ-42" target="M1cJuR4M6LPj80I8JZXZ-33" edge="1">
          <mxGeometry relative="1" as="geometry" />
        </mxCell>
        <mxCell id="mIFWNlDHHsfMtyNEvNPU-21" style="edgeStyle=orthogonalEdgeStyle;rounded=0;orthogonalLoop=1;jettySize=auto;html=1;entryX=0.972;entryY=0.767;entryDx=0;entryDy=0;entryPerimeter=0;endArrow=none;endFill=0;" parent="1" source="M1cJuR4M6LPj80I8JZXZ-33" target="M1cJuR4M6LPj80I8JZXZ-6" edge="1">
          <mxGeometry relative="1" as="geometry" />
        </mxCell>
        <mxCell id="mIFWNlDHHsfMtyNEvNPU-25" style="edgeStyle=orthogonalEdgeStyle;rounded=0;orthogonalLoop=1;jettySize=auto;html=1;entryX=1;entryY=0.5;entryDx=0;entryDy=0;endArrow=none;endFill=0;" parent="1" source="M1cJuR4M6LPj80I8JZXZ-4" target="M1cJuR4M6LPj80I8JZXZ-70" edge="1">
          <mxGeometry relative="1" as="geometry" />
        </mxCell>
        <mxCell id="mIFWNlDHHsfMtyNEvNPU-27" style="edgeStyle=orthogonalEdgeStyle;rounded=0;orthogonalLoop=1;jettySize=auto;html=1;entryX=0.976;entryY=0.973;entryDx=0;entryDy=0;entryPerimeter=0;endArrow=none;endFill=0;" parent="1" source="M1cJuR4M6LPj80I8JZXZ-74" target="M1cJuR4M6LPj80I8JZXZ-6" edge="1">
          <mxGeometry relative="1" as="geometry" />
        </mxCell>
        <mxCell id="mIFWNlDHHsfMtyNEvNPU-33" style="edgeStyle=orthogonalEdgeStyle;rounded=0;orthogonalLoop=1;jettySize=auto;html=1;entryX=0;entryY=0.5;entryDx=0;entryDy=0;" parent="1" source="mIFWNlDHHsfMtyNEvNPU-28" target="M1cJuR4M6LPj80I8JZXZ-14" edge="1">
          <mxGeometry relative="1" as="geometry" />
        </mxCell>
        <mxCell id="mIFWNlDHHsfMtyNEvNPU-28" value="sales_user" style="rhombus;whiteSpace=wrap;html=1;" parent="1" vertex="1">
          <mxGeometry x="710" y="524" width="120" height="80" as="geometry" />
        </mxCell>
        <mxCell id="mIFWNlDHHsfMtyNEvNPU-29" value="sales_location" style="rhombus;whiteSpace=wrap;html=1;" parent="1" vertex="1">
          <mxGeometry x="730" y="724" width="120" height="80" as="geometry" />
        </mxCell>
        <mxCell id="mIFWNlDHHsfMtyNEvNPU-30" style="edgeStyle=orthogonalEdgeStyle;rounded=0;orthogonalLoop=1;jettySize=auto;html=1;entryX=0;entryY=0.5;entryDx=0;entryDy=0;shape=link;" parent="1" source="M1cJuR4M6LPj80I8JZXZ-42" target="mIFWNlDHHsfMtyNEvNPU-29" edge="1">
          <mxGeometry relative="1" as="geometry" />
        </mxCell>
        <mxCell id="mIFWNlDHHsfMtyNEvNPU-31" style="edgeStyle=orthogonalEdgeStyle;rounded=0;orthogonalLoop=1;jettySize=auto;html=1;entryX=0;entryY=0.5;entryDx=0;entryDy=0;endArrow=none;endFill=0;shape=link;" parent="1" source="M1cJuR4M6LPj80I8JZXZ-42" target="mIFWNlDHHsfMtyNEvNPU-28" edge="1">
          <mxGeometry relative="1" as="geometry" />
        </mxCell>
        <mxCell id="mIFWNlDHHsfMtyNEvNPU-32" style="edgeStyle=orthogonalEdgeStyle;rounded=0;orthogonalLoop=1;jettySize=auto;html=1;entryX=0.018;entryY=0.298;entryDx=0;entryDy=0;entryPerimeter=0;" parent="1" source="mIFWNlDHHsfMtyNEvNPU-29" target="M1cJuR4M6LPj80I8JZXZ-12" edge="1">
          <mxGeometry relative="1" as="geometry">
            <Array as="points">
              <mxPoint x="900" y="764" />
              <mxPoint x="900" y="879" />
            </Array>
          </mxGeometry>
        </mxCell>
      </root>
    </mxGraphModel>
  </diagram>
</mxfile>
